<?xml version="1.0" encoding="UTF-8"?><svg id="a" xmlns="http://www.w3.org/2000/svg" viewBox="0 0 232.92 215.59"><defs><style>.b{fill:#fff;}</style></defs><path d="M114.51,198.95c-26.17-.69-51.55-8.51-71.7-29.16-12.52-12.84-19.06-28.32-18.59-46.43,.97-36.76,11.74-69.99,35.81-98.35,1.4-1.65,2.87-3.25,4.38-4.79,4.53-4.64,7.66-4.99,11.55,.03,7.62,9.83,14.81,20.01,21.86,30.27,1.7,2.48,2.83,3.41,6.14,3.2,8.45-.54,16.97-.42,25.43,.07,2.91,.17,3.94-.7,5.42-2.84,7.19-10.36,14.38-20.73,22.08-30.71,3.9-5.05,7.09-4.74,11.54-.04,20.3,21.41,32.29,47,37.49,75.84,2.46,13.62,4.44,27.46,1.53,41.19-5.25,24.81-21.67,40.55-43.63,51.28-14.92,7.29-30.87,10.23-49.33,10.45Z"/><g><path class="b" d="M114.98,137.44c-18.16-.89-45.54-15.23-49.33-25.75-.43-1.19-.19-2.79,.7-3.85,10.71-12.75,25.71-21.91,48.64-25.44v55.04Z"/><path class="b" d="M114.88,82.44c22.98,3.42,37.9,12.69,48.66,25.45,.88,1.04,1.28,2.61,.82,3.74-4.32,10.79-30.91,24.76-49.48,25.91v-55.11Z"/></g><ellipse cx="114.88" cy="109.92" rx="9.7" ry="30.34"/></svg>