<?xml version="1.0" encoding="UTF-8"?><svg id="a" xmlns="http://www.w3.org/2000/svg" xmlns:xlink="http://www.w3.org/1999/xlink" viewBox="0 0 71.99 71.99"><defs><style>.e{fill:url(#d);}.f{fill:url(#b);}.g{fill:#fff;stroke:url(#c);stroke-miterlimit:10;}</style><linearGradient id="b" x1="50.8" y1="59.41" x2="50.8" y2="45.04" gradientTransform="translate(0 73.25) scale(1 -1)" gradientUnits="userSpaceOnUse"><stop offset="0" stop-color="#6dc7ff"/><stop offset="1" stop-color="#e6abff"/></linearGradient><linearGradient id="c" x1="36" y1="0" x2="36" y2="71.99" gradientTransform="matrix(1, 0, 0, 1, 0, 0)" gradientUnits="userSpaceOnUse"><stop offset="0" stop-color="#1a6dff"/><stop offset="1" stop-color="#c822ff"/></linearGradient><linearGradient id="d" x1="37.75" y1="61.18" x2="37.75" y2="13.43" gradientTransform="translate(0 73.25) scale(1 -1)" xlink:href="#c"/></defs><path class="f" d="M53.48,28.39l-9.87-9.87,4.23-4.23c.39-.39,1.02-.39,1.41,0l8.46,8.46c.39,.39,.39,1.02,0,1.41l-4.23,4.23Z"/><circle class="g" cx="36" cy="36" r="35.5"/><path class="e" d="M56.45,29.99l4.43-4.43c1.17-1.17,1.17-3.07,0-4.23l-8.46-8.46c-1.17-1.17-3.06-1.17-4.23,0l-4.43,4.43c-.66-.18-1.4-.01-1.92,.51l-1.41,1.41c-.52,.52-.68,1.26-.51,1.92l-22.96,22.96-.51,.51-.2,.2-2.37,9.97c-.34,1.44,.08,2.93,1.13,3.98s2.53,1.47,3.98,1.12l9.97-2.37,.2-.2,.51-.51,22.96-22.96c.66,.17,1.4,.01,1.92-.51l1.41-1.41c.52-.52,.68-1.25,.51-1.92Zm-3.33,1.92l-11.29-11.29,1.41-1.41,11.28,11.28-1.41,1.41Zm-23.91,22.49c-.28-1.06-.68-2.08-1.2-3.03l20.87-20.87,2.12,2.12-21.79,21.79Zm-8.54,3.01c-.12-1.07-.58-2.12-1.4-2.94-.82-.83-1.86-1.28-2.94-1.4l.7-2.93c1.65,.27,3.17,1.04,4.36,2.22s1.95,2.71,2.22,4.36l-2.93,.7Zm2.12-6.47c-1.45-1.45-3.3-2.4-5.31-2.75l.46-1.94c2.38,.44,4.53,1.56,6.25,3.28s2.84,3.87,3.28,6.25l-1.94,.46c-.35-2.01-1.3-3.86-2.75-5.31Zm2.82-2.82c-.48-.48-.99-.91-1.52-1.3l20.56-20.56,2.82,2.82-20.56,20.56c-.4-.53-.83-1.04-1.3-1.52Zm-3.24-2.4c-.96-.52-1.97-.92-3.03-1.2l21.79-21.79,2.12,2.12-20.87,20.87ZM49.59,14.28c.39-.39,1.02-.39,1.41,0l8.46,8.46c.39,.39,.39,1.02,0,1.41l-4.23,4.23-9.87-9.87,4.23-4.23Z"/></svg>