<?xml version="1.0" encoding="UTF-8"?><svg id="a" xmlns="http://www.w3.org/2000/svg" viewBox="0 0 232.92 215.59"><defs><style>.b{fill:#fff;}</style></defs><g><path d="M116.84,178.02c-7.26-8.48-14.53-16.63-21.38-25.05-10.36-12.72-19.62-26.08-26.66-40.6-5.19-10.7-9.03-21.7-8.6-33.62,.75-20.92,17.45-40.34,40.22-46.68,33.02-9.2,67.41,10.17,73.09,41.1,2.11,11.46-.46,22.31-4.98,32.9-7.58,17.78-18.75,33.72-31.22,48.93-5.93,7.24-12.37,14.13-18.58,21.18-.45,.5-.96,.96-1.88,1.86Z"/><g><path d="M116.46,160.19c-16.37-.46-31.65-32.44-44.25-46.2-7.83-8.55-13.82-26.46-13.52-38.53,.61-24.49,7.35-46.62,22.41-65.51,.88-1.1,1.8-2.16,2.74-3.19,2.84-3.09,4.79-3.32,7.23,.02,4.77,6.55,9.26,13.33,13.68,20.16,1.07,1.65,1.77,2.27,3.84,2.13,5.29-.36,10.62-.28,15.91,.05,1.82,.11,2.47-.47,3.39-1.89,4.5-6.9,9-13.81,13.82-20.46,2.44-3.37,4.43-3.16,7.22-.03,12.7,14.26,20.2,31.31,23.46,50.52,1.54,9.08,2.78,18.29,.96,27.44-3.29,16.52-9.29,36.91-23.03,44.06-9.34,4.86-22.3,31.28-33.85,31.43Z"/><g><path class="b" d="M115.46,84.85c-11.36-.59-28.49-10.15-30.87-17.15-.27-.79-.12-1.86,.44-2.56,6.7-8.49,16.08-14.59,30.43-16.95v36.66Z"/><path class="b" d="M115.4,48.21c14.38,2.28,23.71,8.45,30.45,16.96,.55,.69,.8,1.74,.51,2.49-2.7,7.19-19.34,16.49-30.96,17.26V48.21Z"/></g><ellipse cx="115.4" cy="66.52" rx="6.07" ry="20.21"/></g></g><circle cx="116.46" cy="197.46" r="13.81"/></svg>